<svg width="25" height="25" viewBox="0 0 25 25" fill="none" xmlns="http://www.w3.org/2000/svg">
<path d="M12.5 14.375C11.0833 14.375 9.79708 14.7758 8.64125 15.5775C7.48458 16.38 6.64583 17.4375 6.125 18.75H18.875C18.3542 17.4375 17.5158 16.38 16.36 15.5775C15.2033 14.7758 13.9167 14.375 12.5 14.375ZM7.25 12.5L8.625 11.1875L9.9375 12.5L11.25 11.1875L9.9375 9.875L11.25 8.5L9.9375 7.1875L8.625 8.5L7.25 7.1875L5.9375 8.5L7.25 9.875L5.9375 11.1875L7.25 12.5ZM15.0625 12.5L16.375 11.1875L17.75 12.5L19.0625 11.1875L17.75 9.875L19.0625 8.5L17.75 7.1875L16.375 8.5L15.0625 7.1875L13.75 8.5L15.0625 9.875L13.75 11.1875L15.0625 12.5ZM12.5 25C10.7708 25 9.14583 24.6717 7.625 24.015C6.10417 23.3592 4.78125 22.4688 3.65625 21.3438C2.53125 20.2188 1.64083 18.8958 0.985 17.375C0.328333 15.8542 0 14.2292 0 12.5C0 10.7708 0.328333 9.14583 0.985 7.625C1.64083 6.10417 2.53125 4.78125 3.65625 3.65625C4.78125 2.53125 6.10417 1.64042 7.625 0.98375C9.14583 0.327917 10.7708 0 12.5 0C14.2292 0 15.8542 0.327917 17.375 0.98375C18.8958 1.64042 20.2188 2.53125 21.3438 3.65625C22.4688 4.78125 23.3592 6.10417 24.015 7.625C24.6717 9.14583 25 10.7708 25 12.5C25 14.2292 24.6717 15.8542 24.015 17.375C23.3592 18.8958 22.4688 20.2188 21.3438 21.3438C20.2188 22.4688 18.8958 23.3592 17.375 24.015C15.8542 24.6717 14.2292 25 12.5 25ZM12.5 22.5C15.2917 22.5 17.6562 21.5312 19.5938 19.5938C21.5312 17.6562 22.5 15.2917 22.5 12.5C22.5 9.70833 21.5312 7.34375 19.5938 5.40625C17.6562 3.46875 15.2917 2.5 12.5 2.5C9.70833 2.5 7.34375 3.46875 5.40625 5.40625C3.46875 7.34375 2.5 9.70833 2.5 12.5C2.5 15.2917 3.46875 17.6562 5.40625 19.5938C7.34375 21.5312 9.70833 22.5 12.5 22.5Z" fill="#B8695F"/>
</svg>
