<svg width="26" height="26" viewBox="0 0 26 26" fill="none" xmlns="http://www.w3.org/2000/svg">
<mask id="mask0_138_45" style="mask-type:alpha" maskUnits="userSpaceOnUse" x="1" y="2" width="24" height="24">
<rect x="1" y="2" width="24" height="24" fill="#D9D9D9"/>
</mask>
<g mask="url(#mask0_138_45)">
<path d="M17 22.975V19.975H14V17.975H17V14.975H19V17.975H22V19.975H19V22.975H17ZM5 20V18H12.075C12.025 18.35 12.004 18.6833 12.012 19C12.0207 19.3167 12.05 19.65 12.1 20H5ZM5 16V14H14.65C14.2667 14.2667 13.921 14.5667 13.613 14.9C13.3043 15.2333 13.0333 15.6 12.8 16H5ZM5 12V10H20V12H5ZM5 8V6H20V8H5Z" fill="#928383"/>
</g>
</svg>
