<svg width="20" height="21" viewBox="0 0 20 21" fill="none" xmlns="http://www.w3.org/2000/svg">
<mask id="mask0_189_102" style="mask-type:alpha" maskUnits="userSpaceOnUse" x="0" y="0" width="20" height="21">
<rect y="0.795898" width="20" height="20" fill="#D9D9D9"/>
</mask>
<g mask="url(#mask0_189_102)">
<path d="M10.0001 16.6292V14.9625H12.5001L15.4584 10.7959L12.5001 6.62919H4.16675V9.12919H2.50008V6.62919C2.50008 6.17086 2.66314 5.77864 2.98925 5.45252C3.31591 5.12586 3.70841 4.96252 4.16675 4.96252H12.5001C12.7779 4.96252 13.0384 5.02502 13.2817 5.15002C13.5245 5.27502 13.7223 5.44864 13.8751 5.67086L17.5001 10.7959L13.8751 15.9209C13.7223 16.1431 13.5245 16.3167 13.2817 16.4417C13.0384 16.5667 12.7779 16.6292 12.5001 16.6292H10.0001ZM4.16675 17.4625V14.9625H1.66675V13.2959H4.16675V10.7959H5.83341V13.2959H8.33341V14.9625H5.83341V17.4625H4.16675Z" fill="#928383"/>
</g>
</svg>
