<svg width="26" height="26" viewBox="0 0 26 26" fill="none" xmlns="http://www.w3.org/2000/svg">
<mask id="mask0_138_44" style="mask-type:alpha" maskUnits="userSpaceOnUse" x="1" y="1" width="24" height="24">
<rect x="1" y="1" width="24" height="24" fill="#D9D9D9"/>
</mask>
<g mask="url(#mask0_138_44)">
<path d="M15.5 19C14.8 19 14.2083 18.7583 13.725 18.275C13.2417 17.7917 13 17.2 13 16.5C13 15.8 13.2417 15.2083 13.725 14.725C14.2083 14.2417 14.8 14 15.5 14C16.2 14 16.7917 14.2417 17.275 14.725C17.7583 15.2083 18 15.8 18 16.5C18 17.2 17.7583 17.7917 17.275 18.275C16.7917 18.7583 16.2 19 15.5 19ZM6 23C5.45 23 4.979 22.8043 4.587 22.413C4.19567 22.021 4 21.55 4 21V7C4 6.45 4.19567 5.97933 4.587 5.588C4.979 5.196 5.45 5 6 5H7V3H9V5H17V3H19V5H20C20.55 5 21.021 5.196 21.413 5.588C21.8043 5.97933 22 6.45 22 7V21C22 21.55 21.8043 22.021 21.413 22.413C21.021 22.8043 20.55 23 20 23H6ZM6 21H20V11H6V21ZM6 9H20V7H6V9Z" fill="#928383"/>
</g>
</svg>
