<svg width="4" height="13" viewBox="0 0 4 13" fill="none" xmlns="http://www.w3.org/2000/svg">
<path d="M3.10227 11.4554C3.10227 11.7708 2.98935 12.0414 2.76349 12.2672C2.53764 12.4931 2.26705 12.606 1.9517 12.606C1.63636 12.606 1.36577 12.4931 1.13991 12.2672C0.914062 12.0414 0.801136 11.7708 0.801136 11.4554C0.801136 11.1401 0.914062 10.8695 1.13991 10.6436C1.36577 10.4178 1.63636 10.3049 1.9517 10.3049C2.16051 10.3049 2.35227 10.3581 2.52699 10.4647C2.7017 10.5669 2.84233 10.7054 2.94886 10.8801C3.05114 11.0506 3.10227 11.2424 3.10227 11.4554ZM3.10227 6.4984C3.10227 6.81374 2.98935 7.08434 2.76349 7.31019C2.53764 7.53604 2.26705 7.64897 1.9517 7.64897C1.63636 7.64897 1.36577 7.53604 1.13991 7.31019C0.914062 7.08434 0.801136 6.81374 0.801136 6.4984C0.801136 6.18306 0.914062 5.91246 1.13991 5.68661C1.36577 5.46076 1.63636 5.34783 1.9517 5.34783C2.16051 5.34783 2.35227 5.4011 2.52699 5.50763C2.7017 5.60991 2.84233 5.7484 2.94886 5.92312C3.05114 6.09357 3.10227 6.28533 3.10227 6.4984ZM3.10227 1.54137C3.10227 1.85671 2.98935 2.12731 2.76349 2.35316C2.53764 2.57901 2.26704 2.69194 1.9517 2.69194C1.63636 2.69194 1.36577 2.57901 1.13991 2.35316C0.914062 2.12731 0.801136 1.85671 0.801136 1.54137C0.801136 1.22603 0.914062 0.955432 1.13991 0.72958C1.36577 0.503728 1.63636 0.390802 1.9517 0.390802C2.16051 0.390802 2.35227 0.444069 2.52699 0.550603C2.7017 0.652876 2.84233 0.79137 2.94886 0.966086C3.05114 1.13654 3.10227 1.3283 3.10227 1.54137Z" fill="black"/>
</svg>
